# xmcd
#
# Track frame offsets:
#	150
#	19161
#	39944
#	56530
#	77550
#	95317
#	112214
#	131201
#	151984
#	168574
#	189641
#	207401
#
# Disc length: 2991 seconds
#
# Revision: 1
# Processed by: cddbd v1.5.1PL2 Copyright (c) Steve Scherf et al.
# Submitted via: audiograbber 1.83.01
#
DISCID=a00bad0c
DTITLE=Rait, Bonnie - Cb40008
DYEAR=1900
DGENRE=Country
TTITLE0=Blue For No Reason (Vocals)
TTITLE1=Lovers Will (Vocals)
TTITLE2=Something To Talk About (Vocals)
TTITLE3=I Can't Make You Love Me (Vocals)
TTITLE4=Runaway (Vocals)
TTITLE5=Thing Called Love, A (Vocals)
TTITLE6=Blue For No Reason
TTITLE7=Lovers Will
TTITLE8=Something To Talk About
TTITLE9=I Can't Make You Love Me
TTITLE10=Runaway
TTITLE11=Thing Called Love, A
EXTD=
EXTT0=
EXTT1=
EXTT2=
EXTT3=
EXTT4=
EXTT5=
EXTT6=
EXTT7=
EXTT8=
EXTT9=
EXTT10=
EXTT11=
PLAYORDER=
